<svg width="20" height="20" viewBox="0 0 24 24" fill="none"><path d="M20.52 3.48A11.88 11.88 0 0012.07 1C6.2 1 .93 6.27.93 12.13A11.8 11.8 0 002 17.43L1 23l5.68-1.5A11.8 11.8 0 0012.07 23c5.87 0 11.14-5.27 11.14-11.13 0-2.67-1.08-5.19-3.24-8.39zm-8.45 17.27a9.7 9.7 0 01-4.97-1.37l-.36-.21-3.37.89.9-3.3-.24-.38A9.58 9.58 0 012.07 12.13c0-5.44 4.43-9.87 9.87-9.87 2.51 0 4.87.97 6.65 2.74 1.79 1.8 2.74 4.17 2.74 6.65 0 5.44-4.43 9.87-9.87 9.87zm5.37-7.45c-.3-.15-1.77-.87-2.04-.98-.27-.1-.46-.15-.66.15-.2.3-.76.98-.93 1.18-.17.2-.34.22-.64.08-.3-.15-1.26-.46-2.4-1.46-.89-.8-1.49-1.78-1.67-2.08-.17-.3-.02-.46.13-.62.13-.13.3-.34.46-.5.15-.16.2-.27.3-.45.1-.17.05-.33-.02-.48-.07-.15-.66-1.6-.91-2.2-.24-.58-.48-.5-.66-.5-.16 0-.33-.01-.5-.01s-.46.06-.7.28c-.23.22-.9.88-.9 2.13s.93 2.47 1.07 2.65c.14.19 1.83 2.8 4.44 3.8.62.21 1.1.34 1.47.44.62.16 1.18.13 1.62.08.5-.06 1.53-.63 1.75-1.24.22-.6.22-1.13.16-1.24-.09-.16-.27-.23-.56-.38z" fill="#25D366"/><path d="M20.52 3.48A11.88 11.88 0 0012.07 1C6.2 1 .93 6.27.93 12.13A11.8 11.8 0 002 17.43L1 23l5.68-1.5A11.8 11.8 0 0012.07 23c5.87 0 11.14-5.27 11.14-11.13 0-2.67-1.08-5.19-3.24-8.39zm-8.45 17.27a9.7 9.7 0 01-4.97-1.37l-.36-.21-3.37.89.9-3.3-.24-.38A9.58 9.58 0 012.07 12.13c0-5.44 4.43-9.87 9.87-9.87 2.51 0 4.87.97 6.65 2.74 1.79 1.8 2.74 4.17 2.74 6.65 0 5.44-4.43 9.87-9.87 9.87zm5.37-7.45c-.3-.15-1.77-.87-2.04-.98-.27-.1-.46-.15-.66.15-.2.3-.76.98-.93 1.18-.17.2-.34.22-.64.08-.3-.15-1.26-.46-2.4-1.46-.89-.8-1.49-1.78-1.67-2.08-.17-.3-.02-.46.13-.62.13-.13.3-.34.46-.5.15-.16.2-.27.3-.45.1-.17.05-.33-.02-.48-.07-.15-.66-1.6-.91-2.2-.24-.58-.48-.5-.66-.5-.16 0-.33-.01-.5-.01s-.46.06-.7.28c-.23.22-.9.88-.9 2.13s.93 2.47 1.07 2.65c.14.19 1.83 2.8 4.44 3.8.62.21 1.1.34 1.47.44.62.16 1.18.13 1.62.08.5-.06 1.53-.63 1.75-1.24.22-.6.22-1.13.16-1.24-.09-.16-.27-.23-.56-.38z" fill="#25D366"/></svg>